<?xml version="1.0" encoding="iso-8859-1"?>
<!-- Generator: Adobe Illustrator 19.0.0, SVG Export Plug-In . SVG Version: 6.00 Build 0)  -->
<svg version="1.1" id="Layer_1" xmlns="http://www.w3.org/2000/svg" xmlns:xlink="http://www.w3.org/1999/xlink" x="0px" y="0px"
	 viewBox="0 0 512 512" style="enable-background:new 0 0 512 512;" xml:space="preserve">
<circle style="fill:#006775;" cx="256" cy="255.997" r="255.997"/>
<path style="fill:#004F59;" d="M510.268,286.423C495.135,413.477,387.155,512,256.002,512c-3.153,0-6.306,0-9.458-0.158
	L135.096,400.393l121.852-47.606l8.355-48.867l-68.099-68.099l75.349,25.064l40.67-15.29c50.286-25.695,36.413-91.113,18.917-137.3
	l177.812,177.812L510.268,286.423z"/>
<path style="fill:#F5BE18;" d="M215.333,311.172h56.276c9.301,0,17.025,7.724,17.025,17.024v56.906
	c0,9.301-7.724,17.025-17.025,17.025h-56.276c-6.936,0-12.926-4.257-15.606-10.246c-0.946,0.158-1.734,0.315-2.68,0.315h-31.369
	c-6.306,0-11.507-5.202-11.507-11.507v-48.394c0-6.306,5.202-11.507,11.507-11.507h31.369c0.946,0,1.891,0.158,2.68,0.315
	c2.68-5.99,8.67-10.246,15.606-10.246V311.172z"/>
<path style="fill:#00CC96;" d="M278.544,267.349l0.315,32h2.364c1.261,0,2.364,0.473,3.153,1.104h-27.901
	c0.788-0.473,1.576-0.788,2.523-0.788h2.364l-0.315-31.843c-47.921-3.153-85.911-42.719-86.384-91.428
	c-0.63-51.232,40.512-93.32,91.743-93.951s93.32,40.355,93.793,91.586c0.473,47.921-35.311,87.803-81.812,93.32H278.544z
	 M266.248,267.98c0.788,0,1.419,0,2.207,0C267.667,267.98,267.037,267.98,266.248,267.98z M268.456,267.98c0.788,0,1.576,0,2.364,0
	C270.032,267.98,269.244,267.98,268.456,267.98z M266.565,99.783c41.616-0.473,75.665,32.788,76.138,74.404
	c0.473,41.616-32.946,75.823-74.404,76.296c-41.616,0.473-75.665-32.788-76.138-74.404s32.946-75.823,74.562-76.296
	C266.723,99.783,266.565,99.783,266.565,99.783z"/>
<path style="fill:#E84F4F;" d="M286.899,284.532l-29.635,0.473h-3.468c-3.94,0-6.936,2.838-6.936,6.148l1.419,120.276
	c0,3.31,3.31,5.99,7.093,5.99l32.315-0.473c3.94,0,6.936-2.838,6.936-6.148l-1.419-120.276c0-3.153-2.838-5.674-6.463-5.99H286.899z
	"/>
<path style="fill:#C94545;" d="M282.642,284.532h3.468c3.94,0,7.093,2.68,7.093,5.99l1.419,120.276c0,3.31-2.995,6.148-6.936,6.148
	l-16.236,0.158l-0.473-132.413L282.642,284.532z"/>
<g>
	<path style="fill:#FFD630;" d="M265.146,310.384h34.049c6.306,0,11.507,5.202,11.507,11.507l0,0
		c0,6.306-5.202,11.507-11.507,11.507c6.306,0,11.507,5.202,11.507,11.507l0,0c0,6.306-5.202,11.507-11.507,11.507
		c6.306,0,11.507,5.202,11.507,11.507l0,0c0,6.306-5.202,11.507-11.507,11.507c6.306,0,11.507,5.202,11.507,11.507l0,0
		c0,6.306-5.202,11.507-11.507,11.507h-34.049c-6.306,0-11.507-5.202-11.507-11.507l0,0c0-6.306,5.202-11.507,11.507-11.507
		c-6.306,0-11.507-5.202-11.507-11.507l0,0c0-6.306,5.202-11.507,11.507-11.507c-6.306,0-11.507-5.202-11.507-11.507l0,0
		c0-6.306,5.202-11.507,11.507-11.507c-6.306,0-11.507-5.202-11.507-11.507l0,0C253.638,315.586,258.84,310.384,265.146,310.384z"/>
	<path style="fill:#FFD630;" d="M237.402,284.217h65.576c7.724,0,3.625,24.276-14.818,24.276h-45.084
		c21.281,80.236-63.054,75.507-43.193,11.98c8.986-21.123,14.345-37.202,37.675-36.413L237.402,284.217z"/>
</g>
<rect x="135.256" y="313.223" style="fill:#00CC96;" width="44.137" height="87.174"/>
<path style="fill:#FEFEFE;" d="M212.81,186.798l41.774-41.458l2.364,2.364l-5.202,5.359l1.576-1.104l32,43.034l35.311-37.045
	l2.364,2.364l-35.626,37.36l1.104,1.576l-2.68,2.049l-0.788-1.104l-2.68,2.68l-2.364-2.364l2.995-3.153l-32.315-43.193
	L214.86,189.16l-2.364-2.364h0.315V186.798z"/>
<circle style="fill:#E84F4F;" cx="251.277" cy="152.124" r="11.822"/>
<path style="fill:#C94545;" d="M251.273,140.295c6.621,0,11.822,5.359,11.822,11.822c0,6.621-5.359,11.822-11.822,11.822v-23.803
	l0,0V140.295z"/>
<circle style="fill:#D9DADA;" cx="285.478" cy="197.522" r="11.822"/>
<path style="fill:#C5C6C6;" d="M285.48,185.694c6.621,0,11.822,5.359,11.822,11.822c0,6.621-5.359,11.822-11.822,11.822v-23.803l0,0
	V185.694z"/>
<circle style="fill:#00CC96;" cx="318.428" cy="161.73" r="11.822"/>
<path style="fill:#12B589;" d="M318.426,149.911c6.621,0,11.822,5.359,11.822,11.822c0,6.621-5.359,11.822-11.822,11.822V149.911
	L318.426,149.911z"/>
<circle style="fill:#FBBE00;" cx="216.596" cy="184.594" r="11.822"/>
<path style="fill:#E7A20B;" d="M216.594,172.768c6.621,0,11.822,5.359,11.822,11.822c0,6.621-5.359,11.822-11.822,11.822V172.768
	L216.594,172.768z"/>
<g>
</g>
<g>
</g>
<g>
</g>
<g>
</g>
<g>
</g>
<g>
</g>
<g>
</g>
<g>
</g>
<g>
</g>
<g>
</g>
<g>
</g>
<g>
</g>
<g>
</g>
<g>
</g>
<g>
</g>
</svg>
